# xmcd
#
# Track frame offsets:
#	183
#	16700
#	31203
#	50635
#	68745
#	81568
#	96700
#	108110
#	121833
#	137313
#	150403
#	163730
#	176470
#	193518
#	213158
#	230103
#
# Disc length: 3240 seconds
#
# Revision: 9
# Processed by: cddbd v1.5.2PL0 Copyright (c) Steve Scherf et al.
# Submitted via: audiograbber 1.83.01
#
DISCID=cd0ca610
DTITLE=Roy Black - Meine Großen Erfolge
DYEAR=1900
DGENRE=Pop
TTITLE0=Mona
TTITLE1=Wahnsinn
TTITLE2=In Japan geht die Sonne auf
TTITLE3=Sand in Deinen Augen
TTITLE4=Für Dich allein
TTITLE5=Das Mädchen Carina
TTITLE6=Du bist nicht allein
TTITLE7=Ganz in weiß
TTITLE8=Schön ist es auf der Welt zu sein
TTITLE9=Meine Liebe zu Dir
TTITLE10=Ich Denk´ an Dich
TTITLE11=Dein schönstes Geschenk
TTITLE12=Liebe wie sie Dir gefällt
TTITLE13=Lucky
TTITLE14=Liebt er Dich wie ich Dich liebe?
TTITLE15=Good night my love
EXTD=
EXTT0=
EXTT1=
EXTT2=
EXTT3=
EXTT4=
EXTT5=
EXTT6=
EXTT7=
EXTT8=
EXTT9=
EXTT10=
EXTT11=
EXTT12=
EXTT13=
EXTT14=
EXTT15=
PLAYORDER=
